<svg width="39" height="21" viewBox="0 0 39 21" fill="none" xmlns="http://www.w3.org/2000/svg">
<g clip-path="url(#clip0_211_2053)">
<path d="M38.5802 7.54877C38.5842 7.51974 38.5842 7.4904 38.5802 7.46137C38.584 7.43773 38.584 7.41361 38.5802 7.38991L38.2966 5.34858C38.2557 5.10436 38.1463 4.87609 37.9807 4.68932L37.932 4.63372L37.8429 4.54634L32.9331 0.40015L33.0709 0.53519C32.9582 0.403017 32.8167 0.297298 32.6569 0.225817C32.4971 0.154337 32.3229 0.118912 32.1473 0.122156H30.6565C30.4141 0.117447 30.1772 0.193007 29.984 0.336617C29.7812 0.193872 29.5369 0.118699 29.2872 0.122156H27.7965C27.601 0.119046 27.4081 0.166617 27.2374 0.260068C27.0666 0.353519 26.9241 0.48953 26.8243 0.654327C26.6703 0.889704 26.6124 1.1733 26.6622 1.44862L26.8486 2.73536C26.7251 2.66675 26.5854 2.63116 26.4435 2.63212H19.2246C18.9656 2.63371 18.7126 2.70813 18.4954 2.84656C18.2854 2.97542 18.1169 3.15992 18.0093 3.37873L17.4503 2.91011C17.2302 2.71052 16.9398 2.60234 16.6401 2.60828H5.31354C5.05362 2.61293 4.79947 2.68411 4.57628 2.8148C4.27094 2.99001 4.04716 3.2749 3.95241 3.60908L0.355144 15.4043C0.28793 15.5987 0.281318 15.8083 0.336155 16.0063C0.390992 16.2043 0.504794 16.3819 0.663022 16.5163C0.704252 16.5506 0.747543 16.5824 0.792657 16.6116C0.792657 16.6116 0.719727 16.5639 0.679217 16.5243L5.58903 20.6784C5.79672 20.8658 6.06827 20.9706 6.35056 20.9722H17.7663C18.027 20.9656 18.2813 20.8916 18.5035 20.7578C18.6292 20.6904 18.7417 20.6017 18.8357 20.4957L18.8762 20.4401L18.941 20.3607L18.9896 20.2733L19.5244 20.726C19.7291 20.906 19.9948 21.0051 20.2698 21.004H31.7097C31.9701 20.9955 32.224 20.9217 32.447 20.7896C32.5699 20.7181 32.6817 20.6298 32.7792 20.5275L32.8197 20.4719L32.8845 20.3924C32.9189 20.3422 32.9488 20.289 32.9736 20.2335C33.0001 20.1854 33.0218 20.1349 33.0384 20.0827L36.3197 9.3121V9.21677C36.3238 9.17981 36.3238 9.14254 36.3197 9.10558V9.03411C36.3237 9.01041 36.3237 8.98629 36.3197 8.96259C36.3234 8.91237 36.3234 8.86194 36.3197 8.81166H37.373C37.4646 8.81991 37.5568 8.81991 37.6484 8.81166H37.7214C37.7807 8.79433 37.8378 8.77032 37.8915 8.74019H37.9726L38.1184 8.629L38.1832 8.58133L38.2966 8.43834V8.39073L38.3776 8.25568C38.3731 8.22942 38.3731 8.20253 38.3776 8.17627C38.3733 8.16338 38.3733 8.14944 38.3776 8.13654C38.3949 8.08998 38.4084 8.04216 38.4182 7.99355C38.4144 7.97789 38.4144 7.96155 38.4182 7.94589C38.4142 7.92224 38.4142 7.89807 38.4182 7.87442C38.4182 7.87442 38.5802 7.56464 38.5802 7.54877Z" fill="black"/>
<path d="M16.9723 3.51381C17.0153 3.55194 17.0453 3.60207 17.0584 3.65746C17.0714 3.71285 17.0668 3.77083 17.0452 3.82358L13.4561 15.6108C13.4109 15.7395 13.3184 15.8471 13.1968 15.9127C13.0978 15.9776 12.9833 16.0159 12.8646 16.0239H1.45705C1.35963 16.0193 1.26733 15.9797 1.19778 15.9127C1.15641 15.8751 1.12737 15.8264 1.11438 15.7727C1.10139 15.7189 1.10505 15.6626 1.12487 15.6108L4.72214 3.82358C4.76358 3.69326 4.85314 3.5828 4.97329 3.51381C5.07388 3.45357 5.18787 3.41814 5.30548 3.41054H16.713C16.8097 3.41146 16.9024 3.44838 16.9723 3.51381ZM11.0173 13.2359L13.1644 6.1985H7.15274L5.0138 13.2359H11.0173ZM27.8613 3.63294C27.9002 3.67729 27.9489 3.71245 28.0036 3.73583C28.0583 3.75921 28.1177 3.7702 28.1773 3.76797H29.66C29.7164 3.76852 29.772 3.75494 29.8217 3.72854C29.8713 3.70213 29.9132 3.66376 29.9435 3.61706C29.9698 3.58058 29.9885 3.53928 29.9982 3.49561C30.0079 3.45195 30.0086 3.40682 30.0002 3.36289L29.7086 1.26596C29.6808 1.16892 29.6309 1.0793 29.5628 1.00385C29.5238 0.959505 29.4752 0.924339 29.4205 0.900962C29.3658 0.877584 29.3064 0.8666 29.2468 0.868819H27.7641C27.7076 0.868281 27.652 0.881854 27.6024 0.90826C27.5528 0.934665 27.5108 0.973031 27.4805 1.01974C27.4238 1.13094 27.3995 1.20242 27.4238 1.26596L27.7236 3.36289C27.739 3.46499 27.7872 3.55961 27.8613 3.63294ZM32.5686 1.25008C32.5408 1.15302 32.4909 1.06341 32.4227 0.987962C32.3854 0.94378 32.3382 0.908625 32.2848 0.885206C32.2315 0.861792 32.1733 0.850745 32.1149 0.852933H30.6241C30.5686 0.851382 30.5136 0.86459 30.4651 0.891157C30.4166 0.917725 30.3764 0.95667 30.3486 1.00385C30.2947 1.07431 30.2714 1.16283 30.2838 1.25008L30.5836 3.347C30.6024 3.44803 30.6501 3.5417 30.7213 3.61706C30.7609 3.66053 30.8097 3.69511 30.8643 3.71841C30.9188 3.74172 30.9778 3.7532 31.0373 3.75208H32.5281C32.5835 3.7528 32.638 3.73924 32.6863 3.71276C32.7347 3.68627 32.7751 3.6478 32.8035 3.60118C32.8317 3.56564 32.8514 3.52436 32.8612 3.48038C32.8711 3.4364 32.8707 3.39083 32.8602 3.347L32.5686 1.25008ZM26.5569 4.42724L26.411 3.39466H19.2246C19.1118 3.40076 19.0026 3.43642 18.9086 3.49792C18.849 3.52982 18.797 3.57404 18.7565 3.62751C18.7159 3.681 18.6877 3.74247 18.6737 3.80769L18.0742 5.77751C18.0502 5.82674 18.042 5.88198 18.0507 5.93585C18.0594 5.98973 18.0845 6.03974 18.1228 6.07936C18.1911 6.14232 18.2803 6.17902 18.3739 6.18263H27.1079L24.9608 13.22H16.2512C16.1389 13.2225 16.0295 13.2555 15.9353 13.3153C15.8207 13.3867 15.737 13.497 15.7003 13.6251L15.0926 15.595C15.0728 15.6455 15.0676 15.7004 15.0776 15.7537C15.0876 15.807 15.1124 15.8565 15.1493 15.8968C15.2155 15.964 15.3054 16.0037 15.4005 16.008H26.8405C26.9588 15.998 27.0728 15.9598 27.1726 15.8968C27.2923 15.8309 27.382 15.7231 27.4238 15.595L30.7132 4.82438H27.0106C26.9519 4.82551 26.8935 4.81482 26.8392 4.79296C26.7848 4.77111 26.7357 4.73854 26.6947 4.69729C26.6277 4.62526 26.5803 4.53785 26.5569 4.44312V4.42724Z" fill="white"/>
</g>
<defs>
<clipPath id="clip0_211_2053">
<rect width="38.2838" height="20.8821" fill="white" transform="translate(0.299377 0.121948)"/>
</clipPath>
</defs>
</svg>
