<svg width="34" height="35" viewBox="0 0 34 35" fill="none" xmlns="http://www.w3.org/2000/svg">
<g clip-path="url(#clip0_211_2049)">
<path fill-rule="evenodd" clip-rule="evenodd" d="M10.0459 10.6821L3.09509 17.563C4.48538 18.9393 6.07357 20.0992 7.80514 21.0067C8.28376 22.2635 9.03398 23.4422 10.0558 24.4537C13.9001 28.2593 20.1329 28.2593 23.9772 24.4537C24.999 23.4422 25.7492 22.2635 26.2278 21.0066C27.9594 20.0992 29.5476 18.9393 30.9379 17.563L23.9927 10.6876C23.9875 10.6825 23.9824 10.6774 23.9772 10.6722C20.1329 6.86658 13.9001 6.86658 10.0558 10.6722C10.0525 10.6755 10.0492 10.6788 10.0459 10.6821ZM23.3121 22.2481C21.2865 22.9249 19.1602 23.2714 17.0165 23.2714C14.8728 23.2714 12.7465 22.9249 10.721 22.2481C10.9404 22.5364 11.1827 22.813 11.4479 23.0756C14.5234 26.1201 19.5096 26.1201 22.585 23.0756C22.8502 22.813 23.0926 22.5364 23.3121 22.2481ZM11.5907 11.9126C12.113 12.2541 12.6683 12.5464 13.2494 12.7847C14.4437 13.2744 15.7237 13.5265 17.0165 13.5265C18.3092 13.5265 19.5893 13.2744 20.7836 12.7847C21.3647 12.5464 21.92 12.2541 22.4423 11.9125C19.4053 9.0518 14.6277 9.0518 11.5907 11.9126Z" fill="#3B4158"/>
</g>
<defs>
<clipPath id="clip0_211_2049">
<rect width="27.8428" height="19.4899" fill="white" transform="translate(3.09509 7.81799)"/>
</clipPath>
</defs>
</svg>
