<svg width="29" height="20" viewBox="0 0 29 20" fill="none" xmlns="http://www.w3.org/2000/svg">
<g clip-path="url(#clip0_211_2073)">
<path d="M27.0806 1.10147C27.0806 1.42583 27.3468 1.68878 27.6752 1.68878H28.2697C28.5981 1.68878 28.8643 1.42583 28.8643 1.10147C28.8643 0.777107 28.5981 0.51416 28.2697 0.51416H27.6752C27.3468 0.51416 27.0806 0.777107 27.0806 1.10147Z" fill="#212326"/>
<path d="M9.83839 19.308H12.7267L11.8858 18.4774C11.6628 18.2572 11.3604 18.1334 11.045 18.1334H9.83839C5.24126 18.1334 1.51456 14.4522 1.51456 9.9111C1.51456 5.37003 5.24126 1.68878 9.83839 1.68878H19.3513C23.9485 1.68878 27.6752 5.37003 27.6752 9.9111C27.6752 14.4522 23.9485 18.1334 19.3513 18.1334H15.7927C15.3197 18.1334 14.866 17.9478 14.5315 17.6174L13.5464 16.6443C12.9889 16.0936 12.2327 15.7842 11.4443 15.7842H9.83839C6.55471 15.7842 3.8928 13.1547 3.8928 9.9111C3.8928 6.66746 6.55471 4.03801 9.83839 4.03801H19.3513C22.635 4.03801 25.2969 6.66746 25.2969 9.9111C25.2969 13.1547 22.635 15.7842 19.3513 15.7842H17.0664C16.5933 15.7842 16.1396 15.5985 15.8051 15.2682L14.82 14.2951C14.2625 13.7443 13.5063 13.4349 12.7179 13.4349H9.83839C7.86821 13.4349 6.27103 11.8573 6.27103 9.9111C6.27103 7.96494 7.86821 6.38725 9.83839 6.38725H19.3513C21.3215 6.38725 22.9187 7.96494 22.9187 9.9111C22.9187 11.8335 21.3602 13.3964 19.4233 13.4342L19.4229 13.4349H18.5528C18.0797 13.4349 17.626 13.2493 17.2915 12.9189L16.3064 11.9458C15.849 11.4939 15.2578 11.2045 14.6247 11.1152L14.5949 11.0857H9.83839C9.18166 11.0857 8.64927 10.5598 8.64927 9.9111C8.64927 9.26238 9.18166 8.73648 9.83839 8.73648H19.3513C20.0081 8.73648 20.5405 9.26238 20.5405 9.9111C20.5405 10.5598 20.0081 11.0857 19.3513 11.0857H16.9731L17.814 11.9163C18.0369 12.1366 18.3394 12.2603 18.6548 12.2603H19.3513C20.6648 12.2603 21.7296 11.2085 21.7296 9.9111C21.7296 8.61366 20.6648 7.56186 19.3513 7.56186H9.83839C8.52494 7.56186 7.46015 8.61366 7.46015 9.9111C7.46015 11.2085 8.52494 12.2603 9.83839 12.2603H14.2043C14.6774 12.2603 15.1311 12.446 15.4656 12.7764L16.4507 13.7495C17.0082 14.3002 17.7643 14.6096 18.5528 14.6096H19.6486V14.6005C22.1371 14.449 24.1078 12.4073 24.1078 9.9111C24.1078 7.31623 21.9782 5.21263 19.3513 5.21263H9.83839C7.21148 5.21263 5.08191 7.31623 5.08191 9.9111C5.08191 12.506 7.21148 14.6096 9.83839 14.6096H12.7179C13.191 14.6096 13.6447 14.7952 13.9792 15.1256L14.9643 16.0987C15.5218 16.6494 16.2779 16.9588 17.0664 16.9588H19.3513C23.2917 16.9588 26.4861 13.8034 26.4861 9.9111C26.4861 6.01875 23.2917 2.86339 19.3513 2.86339H9.83839C5.89798 2.86339 2.70368 6.01875 2.70368 9.9111C2.70368 13.8034 5.89798 16.9588 9.83839 16.9588H11.4443C11.9173 16.9588 12.371 17.1444 12.7055 17.4748L13.6907 18.4479C14.2482 18.9986 15.0043 19.308 15.7927 19.308H19.3513C24.6052 19.308 28.8643 15.1009 28.8643 9.9111C28.8643 4.72131 24.6052 0.51416 19.3513 0.51416L9.83839 0.514162C4.58453 0.514163 0.325439 4.72131 0.325439 9.9111C0.32544 15.1009 4.58453 19.308 9.83839 19.308Z" fill="#212326"/>
</g>
<defs>
<clipPath id="clip0_211_2073">
<rect width="28.5388" height="18.7939" fill="white" transform="translate(0.325439 0.51416)"/>
</clipPath>
</defs>
</svg>
