<svg width="33" height="21" viewBox="0 0 33 21" fill="none" xmlns="http://www.w3.org/2000/svg">
<g clip-path="url(#clip0_211_2057)">
<path d="M30.7852 3.29925C30.7852 3.32279 30.7852 3.35221 30.779 3.36986C30.7484 3.59935 30.7484 3.82883 30.7667 4.0642C30.779 4.12304 30.7913 4.18188 30.8403 4.22896C30.92 4.31721 31.0426 4.29957 31.0917 4.19365C31.1162 4.14069 31.1162 4.08773 31.1039 4.03478C31.0426 3.81117 31.0304 3.57581 31.0243 3.34632C31.0243 3.33456 31.0243 3.3169 31.0243 3.29925C31.0917 3.29337 31.153 3.28748 31.2082 3.28748C31.2511 3.2816 31.2879 3.27571 31.3186 3.25806C31.4105 3.21099 31.4105 3.11096 31.3124 3.06388C31.2756 3.04623 31.2266 3.04034 31.1837 3.04034C31.0304 3.04623 30.8771 3.04623 30.7238 3.04623C30.6687 3.04623 30.6135 3.05212 30.5583 3.058C30.5276 3.06388 30.4909 3.06388 30.4664 3.08154C30.4234 3.09919 30.3989 3.12861 30.3989 3.1698C30.405 3.21099 30.4234 3.23452 30.4664 3.25218C30.4909 3.26983 30.5215 3.27571 30.5522 3.27571C30.6257 3.2816 30.7055 3.29337 30.7852 3.29925ZM32.4711 3.56992C32.4711 3.57581 32.4772 3.58169 32.4772 3.58169C32.5018 3.74056 32.5263 3.89356 32.5447 4.04654C32.5508 4.0995 32.557 4.14657 32.5937 4.18776C32.6734 4.28779 32.7961 4.27603 32.8512 4.17011C32.8758 4.11715 32.8819 4.0642 32.8696 4.00535C32.8328 3.82883 32.8144 3.6523 32.7777 3.48166C32.7531 3.37574 32.7225 3.27571 32.6918 3.18157C32.6734 3.12273 32.6305 3.08153 32.557 3.07565C32.4834 3.06388 32.4282 3.09919 32.3975 3.15215C32.3608 3.19922 32.3301 3.24629 32.3056 3.29925C32.2627 3.3934 32.2259 3.48755 32.1769 3.57581C32.1707 3.59935 32.1646 3.617 32.1523 3.63465C32.1462 3.62288 32.1401 3.617 32.1401 3.617C32.0603 3.46989 31.9868 3.32279 31.9071 3.18157C31.8948 3.1698 31.8887 3.15803 31.8826 3.14626C31.8458 3.0933 31.8029 3.06388 31.7354 3.06388C31.6741 3.06977 31.625 3.10507 31.5944 3.15803C31.5821 3.18157 31.5821 3.19922 31.576 3.22276C31.5515 3.41105 31.5208 3.59935 31.4963 3.78764C31.484 3.89356 31.4779 3.99947 31.4779 4.10539C31.4718 4.12892 31.4779 4.15834 31.4902 4.18188C31.5025 4.22895 31.5392 4.25838 31.5883 4.26426C31.6496 4.27014 31.6925 4.25249 31.7109 4.20542C31.7293 4.17011 31.7354 4.14069 31.7416 4.11127C31.7661 4.00535 31.7845 3.90532 31.8029 3.80529C31.8151 3.74645 31.8212 3.69938 31.8397 3.63465C31.8519 3.65819 31.8641 3.67584 31.8764 3.69349C31.9316 3.7641 31.9868 3.83471 32.0542 3.89356C32.1217 3.94063 32.1769 3.93475 32.232 3.88178C32.2443 3.87002 32.2504 3.86414 32.2627 3.85236C32.3179 3.76999 32.3853 3.68761 32.4405 3.60523C32.4527 3.59346 32.4589 3.58169 32.4711 3.56992Z" fill="#3A3B7B"/>
<path d="M18.3449 3.41486C18.3023 3.52668 18.2941 3.60725 18.3138 3.67421C18.3355 3.76527 18.392 3.79508 18.4685 3.77192C19.1886 3.60101 20.7677 4.08612 21.3523 4.22132C21.4902 4.24971 21.6024 4.07889 21.5083 3.92573C21.371 3.77741 19.7926 3.14239 19.1903 3.10777C18.9543 3.09496 18.5323 3.03686 18.3449 3.41486Z" fill="#3A3B7B"/>
<path d="M24.5161 1.35922C24.5929 1.40174 24.6358 1.44229 24.657 1.48761C24.6885 1.54705 24.6719 1.58817 24.6189 1.60915C24.1429 1.83213 23.5094 2.79207 23.2538 3.12314C23.1918 3.1993 23.0488 3.15505 23.0272 3.0298C23.0317 2.88819 23.5931 1.84644 23.9065 1.5627C24.0297 1.45192 24.2331 1.23456 24.5161 1.35922Z" fill="#3A3B7B"/>
<path d="M20.7254 0.886716C20.8176 0.82002 20.9134 0.796648 20.9623 0.839992C21.6805 1.42949 22.0614 2.36302 22.2972 3.21764C22.3061 3.23755 22.3067 3.26612 22.2996 3.29593C22.2966 3.3214 22.2772 3.34831 22.2464 3.36914C22.2135 3.39213 22.1852 3.39913 22.1719 3.37932C21.8571 2.96841 20.0593 1.36963 20.7254 0.886716Z" fill="#3A3B7B"/>
<path d="M5.51689 11.1072C5.68901 10.9842 5.87615 10.8818 6.07417 10.8023C6.28135 10.7455 6.50218 10.7549 6.70328 10.8292C6.90434 10.9035 7.07479 11.0386 7.18873 11.2141C7.29066 11.3892 7.33053 11.5913 7.30239 11.7901C7.27426 11.9888 7.17962 12.1733 7.03268 12.316C6.91878 12.4316 6.78946 12.5323 6.64818 12.6155C6.01846 13.006 5.38313 13.375 4.74783 13.7655C4.61783 13.8632 4.47993 13.9509 4.33543 14.0276C4.11565 14.1328 3.86447 14.1609 3.62533 14.1072C3.38619 14.0535 3.17413 13.9213 3.02581 13.7334C2.91494 13.6004 2.82137 13.4549 2.74717 13.3001C2.1453 12.086 1.52115 10.8772 0.941566 9.6416C0.674068 9.10677 0.456728 8.49164 0.244959 7.89794C0.153339 7.72545 0.135447 7.52547 0.195095 7.34049C0.254742 7.15551 0.387223 7.00017 0.564355 6.9075C0.741489 6.81483 0.949297 6.79216 1.14359 6.84428C1.33788 6.8964 1.50332 7.01921 1.60473 7.18657C1.91644 7.58414 2.19236 8.00644 2.42952 8.44888C3.03138 9.51861 3.60539 10.5883 4.18497 11.626C4.21872 11.6833 4.25593 11.7387 4.29642 11.7918C4.73265 11.6157 5.14295 11.3856 5.51689 11.1072Z" fill="#3A3B7B"/>
<path d="M11.7398 10.734C10.3634 12.2798 8.05619 11.8893 6.89704 9.8996C6.07224 8.48754 5.92736 6.15551 7.72184 4.68462C8.10503 4.37668 8.56323 4.1669 9.05372 4.07486C9.65512 3.99212 10.2684 4.09394 10.8059 4.3658C11.3433 4.63766 11.7775 5.06563 12.0464 5.58855C13.0272 7.30014 12.8879 9.48239 11.7398 10.734ZM11.1826 7.12898C11.0363 6.70837 10.743 6.34929 10.3522 6.1127C10.1311 5.96144 9.8624 5.8879 9.59142 5.90446C9.3204 5.92103 9.06363 6.02668 8.86426 6.20363C8.06736 6.88294 7.90014 8.49291 8.47971 9.45032C8.5536 9.60644 8.66208 9.74518 8.79766 9.85684C8.93324 9.96851 9.09261 10.0504 9.2646 10.0967C9.43659 10.1431 9.61703 10.1528 9.79337 10.1253C9.9697 10.0977 10.1376 10.0334 10.2854 9.93703C10.7173 9.61557 11.0343 9.17295 11.192 8.67068C11.3499 8.16837 11.3407 7.63138 11.1659 7.13434L11.1826 7.12898Z" fill="#3A3B7B"/>
<path d="M17.3572 7.8029C17.2163 7.83199 17.0707 7.83373 16.9291 7.808C16.7875 7.78226 16.6526 7.72964 16.5325 7.65316C16.4274 7.59545 16.3369 7.51612 16.2675 7.42084C16.1982 7.32555 16.1518 7.21673 16.1315 7.10213C16.1113 6.98757 16.1177 6.87013 16.1504 6.75823C16.1831 6.64634 16.2413 6.54279 16.3207 6.45503C16.4591 6.27867 16.6554 6.15242 16.878 6.09668C17.4591 5.93482 18.0573 5.83614 18.6613 5.80251C18.794 5.7877 18.9285 5.79848 19.0568 5.83422C19.1851 5.87 19.3047 5.92996 19.4085 6.01071C19.5123 6.0914 19.5983 6.19123 19.6614 6.30427C19.7245 6.41732 19.7634 6.54132 19.7759 6.669C19.95 7.29614 19.9691 7.9537 19.8316 8.58919C19.3301 10.6431 17.6025 11.3491 15.6631 10.6912C15.1187 10.5153 14.6414 10.1876 14.2922 9.74984C13.8264 9.22271 13.4962 8.598 13.3281 7.92595C13.1919 7.32748 13.2068 6.70648 13.3716 6.11471C13.5364 5.52294 13.8463 4.97757 14.2755 4.52417C14.6827 4.03137 15.2113 3.64353 15.8136 3.39559C16.1942 3.19426 16.6395 3.13701 17.0619 3.23513C17.1577 3.26058 17.2447 3.31017 17.3138 3.37877C17.3829 3.44736 17.4317 3.53245 17.455 3.62522C17.4783 3.71798 17.4753 3.81505 17.4464 3.90634C17.4174 3.99763 17.3636 4.07983 17.2904 4.14441C17.1512 4.26532 17 4.37281 16.839 4.46533C16.3435 4.76815 15.9124 5.15836 15.5684 5.61529C15.3429 5.91097 15.1876 6.25051 15.1134 6.60995C15.0393 6.9694 15.0481 7.34009 15.1393 7.69596C15.2657 8.18116 15.5461 8.61667 15.9417 8.94217C17.1678 10.0119 18.7616 8.97961 18.483 7.51943C18.0762 7.61572 17.7195 7.71734 17.3572 7.8029Z" fill="#3A3B7B"/>
<path d="M24.8473 10.8195C23.0361 11.8893 20.9742 10.8195 20.5227 8.57311C20.194 6.9685 20.8181 4.72204 23.0027 3.86625C23.4675 3.68808 23.9716 3.62553 24.4683 3.68439C25.0651 3.78924 25.6126 4.07122 26.0335 4.49057C26.4544 4.90991 26.7276 5.44547 26.8145 6.02178C27.1823 7.93124 26.3464 9.96911 24.8473 10.8195ZM25.4771 7.21986C25.4765 6.77554 25.3127 6.34558 25.0145 6.00572C24.8551 5.79551 24.6246 5.64489 24.3624 5.57952C24.1002 5.51419 23.8225 5.53814 23.5767 5.64737C22.5959 6.05384 21.9048 7.53008 22.1556 8.61591C22.1748 8.7863 22.2324 8.95063 22.3247 9.09739C22.4169 9.24415 22.5414 9.36981 22.6895 9.4656C22.8375 9.56135 23.0056 9.62493 23.182 9.65186C23.3584 9.67875 23.5387 9.66838 23.7104 9.62145C24.2289 9.44762 24.6778 9.12276 24.9945 8.6922C25.3112 8.26164 25.4799 7.7469 25.4771 7.21986Z" fill="#3A3B7B"/>
<path d="M28.646 11.2689C28.6187 11.4646 28.5115 11.642 28.3479 11.7618C28.1843 11.8817 27.9779 11.9343 27.7739 11.908C27.5699 11.8818 27.3852 11.7788 27.2603 11.6219C27.1354 11.4649 27.0806 11.2667 27.108 11.071C27.1353 10.8752 27.2426 10.6979 27.4061 10.578C27.5697 10.4581 27.7761 10.4056 27.9801 10.4318C28.1841 10.458 28.3688 10.5609 28.4937 10.7179C28.6186 10.8749 28.6734 11.0731 28.646 11.2689ZM28.1612 4.05346C28.2672 3.8981 28.4227 3.77979 28.6045 3.71617C28.7863 3.65255 28.9846 3.64704 29.1699 3.70045C29.3583 3.74569 29.5247 3.85167 29.6414 4.00065C29.7581 4.14963 29.8179 4.33256 29.8108 4.5188C29.7862 4.81754 29.7397 5.11424 29.6715 5.40668C29.4876 6.3962 29.3092 7.38568 29.1142 8.36452C29.025 8.75498 28.908 9.12939 28.7798 9.52517C28.7352 9.6489 28.6607 9.76071 28.5625 9.85145C28.5014 9.91972 28.4234 9.97206 28.3356 10.0037C28.2479 10.0353 28.1532 10.0452 28.0604 10.0324C27.9677 10.0196 27.8797 9.98454 27.8048 9.9305C27.7299 9.87641 27.6704 9.80507 27.6318 9.72309C27.5656 9.576 27.5296 9.41796 27.5259 9.25775C27.5259 8.59451 27.5259 7.92594 27.5705 7.25732C27.6463 6.30316 27.7953 5.35565 28.0163 4.42252C28.0424 4.29751 28.0914 4.17796 28.1612 4.06951V4.05346Z" fill="#3A3B7B"/>
<path fill-rule="evenodd" clip-rule="evenodd" d="M3.16231 15.567C3.09651 15.708 3.07847 15.8652 3.11062 16.0164C3.13201 16.2158 3.179 16.4119 3.2505 16.6003C3.33978 16.831 3.43968 17.0591 3.56285 17.3402C3.59118 17.4049 3.62078 17.4724 3.65176 17.5435C3.81787 17.9244 4.02629 18.4111 4.3043 19.1156C4.38299 19.3157 4.45287 19.5175 4.52323 19.7206C4.55166 19.8027 4.58019 19.885 4.60939 19.9676C4.71406 20.261 4.89416 20.5246 5.13289 20.7335C5.23426 20.8484 5.36872 20.932 5.51949 20.9739C5.6732 21.0165 5.83669 21.0138 5.98877 20.9661C6.14084 20.9184 6.27442 20.8278 6.37214 20.7062C6.46795 20.5869 6.52492 20.4433 6.536 20.2931C6.59816 20.0007 6.57694 19.6975 6.47449 19.4156C6.3119 18.9475 6.12668 18.4787 5.9131 18.0202L5.91212 18.0182C5.56076 17.3009 5.2036 16.5885 4.82954 15.8759L4.82674 15.8709C4.71724 15.6852 4.57493 15.5192 4.40622 15.3804C4.29668 15.2565 4.1456 15.1729 3.97875 15.1441C3.80835 15.1147 3.6326 15.1443 3.48289 15.2277C3.34126 15.3054 3.22899 15.4241 3.16231 15.567Z" fill="#3A3B7B"/>
<path fill-rule="evenodd" clip-rule="evenodd" d="M8.52889 13.8006C7.97797 13.6637 7.4026 13.6437 6.84289 13.7422C6.40936 13.7831 5.98299 13.8791 5.68692 14.0692C5.53633 14.166 5.41459 14.2902 5.34686 14.4481C5.27877 14.6069 5.27008 14.7885 5.32588 14.9908C5.42776 15.3614 5.56007 15.7217 5.69192 16.0809L5.71328 16.1391L5.71379 16.1404C6.11077 17.1838 6.51153 18.2237 6.91594 19.26C6.96309 19.4233 7.02978 19.5809 7.11466 19.7295L7.11625 19.7322C7.22837 19.9168 7.37217 20.0819 7.54159 20.2206C7.62632 20.2969 7.73111 20.3496 7.84472 20.3732C7.95946 20.397 8.07878 20.3901 8.18968 20.3532C8.30063 20.3164 8.39887 20.251 8.47374 20.1642C8.5474 20.0788 8.59563 19.976 8.61334 19.8665C8.68644 19.5691 8.66302 19.2574 8.54618 18.9731C8.50973 18.8775 8.48113 18.7797 8.45098 18.6768C8.44093 18.6425 8.43075 18.6076 8.42 18.572C9.3457 18.2247 10.3307 17.7578 10.677 16.6714C10.8127 16.296 10.824 15.8894 10.7094 15.5076C10.5947 15.1253 10.3594 14.7864 10.0359 14.5377C9.59555 14.1895 9.08122 13.9379 8.52889 13.8006ZM7.00179 15.1331C7.02002 15.1281 7.03838 15.1234 7.0568 15.119C7.65946 15.0281 8.27605 15.1493 8.79304 15.4601C9.02088 15.6122 9.11421 15.7812 9.13025 15.9438C9.14679 16.1112 9.08337 16.2926 8.95597 16.467C8.71523 16.7964 8.27591 17.06 7.87907 17.1091C7.58978 16.4697 7.29599 15.8044 7.00179 15.1331Z" fill="#3A3B7B"/>
<path d="M12.2018 12.6301C12.8579 12.3393 13.6706 12.2891 14.3065 12.4935C14.4667 12.5383 14.6057 12.6352 14.6996 12.7675C14.793 12.8991 14.8361 13.0576 14.8217 13.216C14.8208 13.3189 14.7945 13.4201 14.745 13.5114C14.6946 13.6043 14.6216 13.6842 14.5323 13.7444C14.4429 13.8046 14.3398 13.8433 14.2316 13.8571C14.1233 13.8709 14.0133 13.8595 13.9106 13.8239L13.9028 13.8212L13.8955 13.8175C13.8429 13.7911 13.7871 13.7712 13.7294 13.7583L13.7258 13.7575C13.2784 13.6435 12.8564 13.8324 12.7023 14.0646C12.6288 14.1753 12.6196 14.2871 12.6809 14.3887C12.7464 14.4976 12.9073 14.6198 13.2327 14.7069C13.3222 14.7304 13.4139 14.7532 13.507 14.7763C13.7643 14.8403 14.0317 14.9067 14.2903 14.9988L14.2913 14.9991C15.4843 15.4348 15.9285 16.3371 15.7764 17.1857C15.626 18.0249 14.8957 18.7887 13.7976 18.9689C13.398 19.0539 12.9821 19.0373 12.5912 18.9208C12.1993 18.804 11.846 18.5908 11.5665 18.3023L11.5592 18.2948C11.4709 18.1861 11.4116 18.0584 11.3853 17.9229C11.361 17.8007 11.3738 17.6743 11.4219 17.5588C11.4698 17.4439 11.5507 17.3445 11.6552 17.272C11.7655 17.1899 11.8986 17.1406 12.0378 17.1304C12.1765 17.1201 12.3154 17.1491 12.4372 17.2136C12.5589 17.27 12.6721 17.342 12.7737 17.4276L12.7757 17.4292C12.9554 17.5869 13.1729 17.628 13.3814 17.59C13.593 17.5513 13.7919 17.4312 13.9199 17.2718C14.047 17.1133 14.0981 16.9252 14.0375 16.7425C13.9765 16.5585 13.7933 16.3523 13.3907 16.1799C13.2854 16.137 13.1763 16.1024 13.0628 16.0688C13.0321 16.0597 13.001 16.0506 12.9695 16.0415C12.8856 16.017 12.7992 15.9918 12.7145 15.9641C12.6562 15.945 12.5983 15.9269 12.541 15.909C12.3844 15.86 12.2317 15.8123 12.0848 15.7483C11.765 15.6438 11.4887 15.4431 11.297 15.176C11.1046 14.9078 11.0077 14.5871 11.0209 14.2617C11.0219 13.4688 11.5422 12.9225 12.2018 12.6301Z" fill="#3A3B7B"/>
<path d="M20.5196 12.5457C20.3923 12.486 20.2517 12.4577 20.1102 12.4633C19.9688 12.4689 19.831 12.5081 19.7093 12.5776C19.5884 12.6466 19.4872 12.7433 19.4147 12.8589C19.3482 12.9563 19.3021 13.0652 19.2792 13.1796C19.2562 13.2939 19.2568 13.4113 19.2808 13.5253C19.3045 13.6719 19.3307 13.8144 19.3567 13.9549C19.3996 14.1874 19.4414 14.4148 19.469 14.6465L19.47 14.6524C19.5328 15.0159 19.5656 15.3835 19.5686 15.7519L19.5689 15.7571C19.5903 16.155 19.4491 16.5451 19.1754 16.8446L19.1711 16.85C19.082 16.9595 18.963 17.0431 18.8272 17.0914C18.6915 17.1397 18.5445 17.1508 18.4026 17.1234C18.2606 17.0961 18.1294 17.0314 18.0236 16.9366C17.9178 16.8418 17.8415 16.7202 17.8034 16.5862C17.7221 16.3037 17.675 16.0132 17.663 15.7204L17.8019 13.598C17.804 13.5702 17.8063 13.5418 17.8087 13.5131C17.814 13.4486 17.8194 13.383 17.8217 13.3217C17.8249 13.2316 17.8221 13.1389 17.8003 13.0512C17.7779 12.9616 17.7353 12.8763 17.6598 12.8037C17.585 12.7318 17.484 12.6788 17.357 12.6426C17.1273 12.5788 16.9331 12.5809 16.7712 12.6468C16.6093 12.7127 16.4983 12.8351 16.4198 12.9765C16.3419 13.1167 16.2919 13.2827 16.254 13.4489C16.2259 13.5723 16.2033 13.7018 16.1819 13.8251C16.1745 13.8676 16.1672 13.9093 16.1599 13.9498L16.1597 13.951C16.0449 14.627 16.0107 15.3134 16.0578 15.9969C16.0666 16.3663 16.1469 16.7309 16.2946 17.0721C16.4612 17.5123 16.763 17.8937 17.1601 18.166C17.558 18.4388 18.0329 18.5892 18.5219 18.5971C19.0108 18.605 19.4908 18.4702 19.8981 18.2105C20.3048 17.9512 20.62 17.5795 20.802 17.1446C21.0566 16.5906 21.1761 15.9882 21.1514 15.3831C21.1365 14.9414 21.1114 14.4963 21.0865 14.0535C21.0743 13.8362 21.0621 13.6195 21.0511 13.404C21.0456 13.188 20.9714 12.9787 20.8384 12.8044C20.7561 12.6941 20.6465 12.6052 20.5196 12.5457Z" fill="#3A3B7B"/>
<path d="M25.0222 15.8737C25.0093 15.8894 24.9957 15.9057 24.9815 15.9226C24.8781 15.3497 24.7822 14.777 24.6861 14.2034C24.6517 13.9976 24.617 13.7909 24.5822 13.5848L24.5783 13.5618L24.5656 13.542C24.5416 13.5046 24.5392 13.4679 24.5392 13.3898V13.3807L24.5378 13.3718C24.5118 13.2103 24.4357 13.0601 24.3195 12.9407C24.2036 12.8217 24.053 12.7388 23.8874 12.7028C23.7221 12.6637 23.5484 12.6723 23.3882 12.7277C23.2283 12.7828 23.089 12.882 22.9876 13.0128C22.9033 13.1131 22.8342 13.2244 22.7824 13.3433C22.6648 13.5995 22.5463 13.8563 22.4274 14.1138L22.4253 14.1183C22.1285 14.7612 21.8297 15.4084 21.5395 16.0606L21.5386 16.0627C21.3605 16.4857 21.2135 16.9313 21.067 17.3756C21.0377 17.4643 21.0085 17.5529 20.979 17.6413C20.9261 17.7815 20.9029 17.9305 20.9109 18.0793C20.9012 18.2126 20.9345 18.3456 21.0062 18.4602C21.0793 18.5772 21.1888 18.6692 21.3192 18.7234C21.4574 18.7816 21.612 18.7939 21.7584 18.7585C21.9045 18.7231 22.0343 18.6422 22.1272 18.5284C22.2459 18.3883 22.3481 18.2354 22.4313 18.0735C22.6771 17.5909 22.912 17.1025 23.1458 16.6162C23.2363 16.4281 23.3242 16.2597 23.4242 16.0762C23.4311 16.0988 23.4381 16.1209 23.4454 16.143C23.5502 16.5859 23.7271 17.0102 23.9697 17.4003C24.0155 17.4829 24.0795 17.5551 24.1571 17.6119C24.2356 17.6695 24.3262 17.7098 24.4226 17.7303C24.519 17.7509 24.619 17.7509 24.7154 17.7306C24.8117 17.7103 24.9026 17.6699 24.9812 17.6127L25.1367 17.501L26.3436 16.5253L26.2722 16.9618C26.1742 17.5618 26.077 18.1569 25.9737 18.752C25.9062 19.0158 25.9063 19.2914 25.974 19.5551C26.0034 19.7035 26.0782 19.8401 26.1888 19.9475C26.3004 20.0559 26.4433 20.1295 26.5991 20.1588C26.7548 20.1881 26.9161 20.1719 27.0621 20.1121C27.2059 20.0532 27.3283 19.9548 27.4138 19.8293C27.6128 19.5924 27.7367 19.3055 27.7707 19.0028C27.8219 18.5754 27.8798 18.1422 27.9377 17.7091C28.0044 17.21 28.0711 16.7109 28.1274 16.2214L28.1276 16.2199C28.1818 15.6841 28.208 15.1461 28.2062 14.6078C28.2181 14.4377 28.1739 14.2682 28.0799 14.1234C27.9855 13.978 27.8458 13.865 27.6806 13.8004C27.5088 13.7254 27.3165 13.7054 27.132 13.7433C26.9486 13.7809 26.7827 13.8737 26.6581 14.008C26.4355 14.2056 26.2267 14.4171 26.033 14.641L26.0317 14.6425C25.8202 14.8954 25.6102 15.1533 25.4015 15.4095C25.2746 15.5653 25.1481 15.7207 25.0222 15.8737Z" fill="#3A3B7B"/>
</g>
<defs>
<clipPath id="clip0_211_2057">
<rect width="32.7153" height="20.186" fill="white" transform="translate(0.160461 0.817993)"/>
</clipPath>
</defs>
</svg>
