<svg width="34" height="35" viewBox="0 0 34 35" fill="none" xmlns="http://www.w3.org/2000/svg">
<g clip-path="url(#clip0_211_2046)">
<path fill-rule="evenodd" clip-rule="evenodd" d="M9.97904 3.74829C13.8233 3.74829 16.9397 6.8647 16.9397 10.709V3.74829H23.9004C27.7447 3.74829 30.8611 6.8647 30.8611 10.709C30.8611 14.5532 27.7447 17.6697 23.9004 17.6697C27.7447 17.6697 30.8611 20.7861 30.8611 24.6304C30.8611 26.5392 30.0927 28.2686 28.8484 29.5261L28.8224 29.5524L28.7993 29.5753C27.5415 30.8214 25.8109 31.5911 23.9004 31.5911C22.003 31.5911 20.2829 30.8319 19.0272 29.6007C19.011 29.5847 18.9947 29.5685 18.9784 29.5524C18.9632 29.5371 18.948 29.5218 18.9329 29.5064C17.7001 28.2506 16.9397 26.5293 16.9397 24.6304C16.9397 28.4746 13.8233 31.5911 9.97904 31.5911C6.13475 31.5911 3.01834 28.4746 3.01834 24.6304V17.6697H9.97904C6.13475 17.6697 3.01834 14.5532 3.01834 10.709C3.01834 6.8647 6.13475 3.74829 9.97904 3.74829ZM15.5476 10.709C15.5476 13.7844 13.0545 16.2775 9.97904 16.2775V5.14043C13.0545 5.14043 15.5476 7.63356 15.5476 10.709ZM29.469 24.6304C29.469 21.5549 26.9759 19.0618 23.9004 19.0618C20.825 19.0618 18.3319 21.5549 18.3319 24.6304H29.469ZM4.41048 19.0618V24.6304C4.41048 27.7058 6.90361 30.1989 9.97904 30.1989C13.0545 30.1989 15.5476 27.7058 15.5476 24.6304V19.0618H4.41048ZM18.3319 16.2775V5.14043H23.9004C26.9759 5.14043 29.469 7.63356 29.469 10.709C29.469 13.7844 26.9759 16.2775 23.9004 16.2775H18.3319Z" fill="#263238"/>
</g>
<defs>
<clipPath id="clip0_211_2046">
<rect width="27.8428" height="27.8428" fill="white" transform="translate(3.01834 3.74829)"/>
</clipPath>
</defs>
</svg>
