<svg width="39" height="35" viewBox="0 0 39 35" fill="none" xmlns="http://www.w3.org/2000/svg">
<g clip-path="url(#clip0_211_2080)">
<path d="M38.8874 14.5488C38.8914 14.5197 38.8914 14.4904 38.8874 14.4614C38.8912 14.4377 38.8912 14.4136 38.8874 14.3899L38.6038 12.3486C38.5629 12.1044 38.4535 11.8761 38.2878 11.6893L38.2392 11.6337L38.1501 11.5463L33.2403 7.40015L33.3781 7.53519C33.2654 7.40302 33.1239 7.2973 32.9641 7.22582C32.8043 7.15434 32.6301 7.11891 32.4545 7.12216H30.9637C30.7213 7.11745 30.4844 7.19301 30.2912 7.33662C30.0884 7.19387 29.8441 7.1187 29.5944 7.12216H28.1037C27.9081 7.11905 27.7153 7.16662 27.5446 7.26007C27.3738 7.35352 27.2313 7.48953 27.1315 7.65433C26.9775 7.8897 26.9196 8.1733 26.9694 8.44862L27.1558 9.73536C27.0323 9.66675 26.8926 9.63116 26.7506 9.63212H19.5318C19.2728 9.63371 19.0198 9.70813 18.8026 9.84656C18.5926 9.97542 18.4241 10.1599 18.3165 10.3787L17.7575 9.91011C17.5374 9.71052 17.247 9.60234 16.9473 9.60828H5.62073C5.36081 9.61293 5.10666 9.68411 4.88347 9.8148C4.57813 9.99001 4.35435 10.2749 4.2596 10.6091L0.662334 22.4043C0.59512 22.5987 0.588508 22.8083 0.643345 23.0063C0.698182 23.2043 0.811983 23.3819 0.970212 23.5163C1.01144 23.5506 1.05473 23.5824 1.09985 23.6116C1.09985 23.6116 1.02692 23.5639 0.986407 23.5243L5.89622 27.6784C6.10391 27.8658 6.37546 27.9706 6.65775 27.9722H18.0735C18.3342 27.9656 18.5885 27.8916 18.8107 27.7578C18.9364 27.6904 19.0489 27.6017 19.1429 27.4957L19.1834 27.4401L19.2482 27.3607L19.2968 27.2733L19.8316 27.726C20.0363 27.906 20.3019 28.0051 20.577 28.004H32.0169C32.2773 27.9955 32.5312 27.9217 32.7542 27.7896C32.8771 27.7181 32.9889 27.6298 33.0864 27.5275L33.1269 27.4719L33.1917 27.3924C33.2261 27.3422 33.256 27.289 33.2808 27.2335C33.3073 27.1854 33.329 27.1349 33.3456 27.0827L36.6269 16.3121V16.2168C36.631 16.1798 36.631 16.1425 36.6269 16.1056V16.0341C36.6308 16.0104 36.6308 15.9863 36.6269 15.9626C36.6306 15.9124 36.6306 15.8619 36.6269 15.8117H37.6802C37.7718 15.8199 37.864 15.8199 37.9556 15.8117H38.0286C38.0879 15.7943 38.145 15.7703 38.1987 15.7402H38.2798L38.4256 15.629L38.4904 15.5813L38.6038 15.4383V15.3907L38.6848 15.2557C38.6803 15.2294 38.6803 15.2025 38.6848 15.1763C38.6805 15.1634 38.6805 15.1494 38.6848 15.1365C38.7021 15.09 38.7156 15.0422 38.7253 14.9936C38.7216 14.9779 38.7216 14.9616 38.7253 14.9459C38.7214 14.9222 38.7214 14.8981 38.7253 14.8744C38.7253 14.8744 38.8874 14.5646 38.8874 14.5488Z" fill="black"/>
<path d="M17.2795 10.5138C17.3225 10.5519 17.3525 10.6021 17.3656 10.6575C17.3786 10.7129 17.374 10.7708 17.3524 10.8236L13.7633 22.6108C13.7181 22.7395 13.6256 22.8471 13.504 22.9127C13.405 22.9776 13.2905 23.0159 13.1718 23.0239H1.76424C1.66682 23.0193 1.57452 22.9797 1.50497 22.9127C1.4636 22.8751 1.43456 22.8264 1.42157 22.7727C1.40858 22.7189 1.41224 22.6626 1.43206 22.6108L5.02933 10.8236C5.07077 10.6933 5.16033 10.5828 5.28048 10.5138C5.38107 10.4536 5.49506 10.4181 5.61267 10.4105H17.0202C17.1169 10.4115 17.2095 10.4484 17.2795 10.5138ZM11.3245 20.2359L13.4716 13.1985H7.45993L5.32099 20.2359H11.3245ZM28.1685 10.6329C28.2074 10.6773 28.2561 10.7125 28.3108 10.7358C28.3655 10.7592 28.4248 10.7702 28.4845 10.768H29.9671C30.0236 10.7685 30.0792 10.7549 30.1289 10.7285C30.1785 10.7021 30.2204 10.6638 30.2507 10.6171C30.277 10.5806 30.2956 10.5393 30.3054 10.4956C30.3151 10.452 30.3158 10.4068 30.3074 10.3629L30.0157 8.26596C29.988 8.16892 29.9381 8.0793 29.87 8.00385C29.831 7.9595 29.7824 7.92434 29.7277 7.90096C29.6729 7.87758 29.6136 7.8666 29.5539 7.86882H28.0713C28.0148 7.86828 27.9592 7.88185 27.9096 7.90826C27.8599 7.93467 27.818 7.97303 27.7877 8.01974C27.731 8.13094 27.7067 8.20242 27.731 8.26596L28.0308 10.3629C28.0462 10.465 28.0944 10.5596 28.1685 10.6329ZM32.8758 8.25008C32.848 8.15302 32.7981 8.06341 32.7299 7.98796C32.6926 7.94378 32.6454 7.90863 32.592 7.88521C32.5387 7.86179 32.4805 7.85075 32.422 7.85293H30.9313C30.8758 7.85138 30.8208 7.86459 30.7723 7.89116C30.7238 7.91772 30.6836 7.95667 30.6558 8.00385C30.6019 8.07431 30.5786 8.16283 30.591 8.25008L30.8907 10.347C30.9096 10.448 30.9573 10.5417 31.0285 10.6171C31.0681 10.6605 31.1169 10.6951 31.1714 10.7184C31.226 10.7417 31.285 10.7532 31.3445 10.7521H32.8352C32.8906 10.7528 32.9452 10.7392 32.9935 10.7128C33.0419 10.6863 33.0823 10.6478 33.1107 10.6012C33.1389 10.5656 33.1586 10.5244 33.1684 10.4804C33.1783 10.4364 33.1779 10.3908 33.1674 10.347L32.8758 8.25008ZM26.8641 11.4272L26.7182 10.3947H19.5318C19.419 10.4008 19.3098 10.4364 19.2158 10.4979C19.1562 10.5298 19.1042 10.574 19.0637 10.6275C19.0231 10.681 18.9949 10.7425 18.9809 10.8077L18.3813 12.7775C18.3574 12.8267 18.3492 12.882 18.3579 12.9359C18.3666 12.9897 18.3917 13.0397 18.4299 13.0794C18.4983 13.1423 18.5874 13.179 18.6811 13.1826H27.4151L25.268 20.22H16.5584C16.4461 20.2225 16.3367 20.2555 16.2425 20.3153C16.1279 20.3867 16.0442 20.497 16.0075 20.6251L15.3998 22.595C15.38 22.6455 15.3748 22.7004 15.3848 22.7537C15.3948 22.807 15.4196 22.8565 15.4565 22.8968C15.5227 22.964 15.6126 23.0037 15.7077 23.008H27.1477C27.266 22.998 27.38 22.9598 27.4798 22.8968C27.5995 22.8309 27.6892 22.7231 27.731 22.595L31.0204 11.8244H27.3178C27.259 11.8255 27.2007 11.8148 27.1464 11.793C27.092 11.7711 27.0428 11.7385 27.0019 11.6973C26.9349 11.6253 26.8875 11.5378 26.8641 11.4431V11.4272Z" fill="white"/>
</g>
<defs>
<clipPath id="clip0_211_2080">
<rect width="38.2838" height="20.8821" fill="white" transform="translate(0.606567 7.12195)"/>
</clipPath>
</defs>
</svg>
