<svg width="37" height="15" viewBox="0 0 37 15" fill="none" xmlns="http://www.w3.org/2000/svg">
<g clip-path="url(#clip0_211_2077)">
<path d="M8.81751 0.602295C7.40398 0.602295 6.04836 1.16381 5.04885 2.16333L1.78686 5.42531C0.787349 6.42482 0.22583 7.78044 0.22583 9.19397C0.22583 12.1375 2.61202 14.5237 5.55554 14.5237C6.96907 14.5237 8.32469 13.9621 9.3242 12.9626L11.5805 10.7063C11.5805 10.7063 11.5806 10.7063 11.5805 10.7063L18.1547 4.13211C18.6321 3.65475 19.2795 3.38657 19.9546 3.38657C21.0849 3.38657 22.0431 4.1232 22.3753 5.14256L24.4501 3.06775C23.5036 1.5853 21.8439 0.602295 19.9546 0.602295C18.5411 0.602295 17.1855 1.16381 16.186 2.16333L7.35544 10.9939C6.87807 11.4712 6.23064 11.7394 5.55554 11.7394C4.14973 11.7394 3.01011 10.5998 3.01011 9.19397C3.01011 8.51888 3.27828 7.87144 3.75564 7.39408L7.01761 4.13211C7.49498 3.65475 8.14241 3.38657 8.81751 3.38657C9.94779 3.38657 10.9059 4.12324 11.2382 5.14262L13.313 3.06781C12.3665 1.58533 10.7068 0.602295 8.81751 0.602295Z" fill="#394149"/>
<path d="M18.4925 10.9939C18.0152 11.4712 17.3677 11.7394 16.6926 11.7394C15.5626 11.7394 14.6044 11.003 14.2721 9.98378L12.1974 12.0585C13.1439 13.5408 14.8035 14.5237 16.6926 14.5237C18.1062 14.5237 19.4618 13.9621 20.4613 12.9626L29.2918 4.13211C29.7692 3.65475 30.4166 3.38657 31.0917 3.38657C32.4976 3.38657 33.6372 4.5262 33.6372 5.93201C33.6372 6.6071 33.369 7.25454 32.8916 7.7319L29.6297 10.9939C29.1523 11.4712 28.5049 11.7394 27.8298 11.7394C26.6996 11.7394 25.7414 11.0028 25.4092 9.98355L23.3344 12.0583C24.2809 13.5407 25.9405 14.5237 27.8298 14.5237C29.2433 14.5237 30.5989 13.9621 31.5984 12.9626L34.8604 9.70067C35.8599 8.70116 36.4214 7.34554 36.4214 5.93201C36.4214 2.98849 34.0353 0.602295 31.0917 0.602295C29.6782 0.602295 28.3226 1.16381 27.3231 2.16333L18.4925 10.9939Z" fill="#394149"/>
</g>
<defs>
<clipPath id="clip0_211_2077">
<rect width="36.1956" height="13.9214" fill="white" transform="translate(0.22583 0.602295)"/>
</clipPath>
</defs>
</svg>
